<svg width="236" height="29" viewBox="0 0 236 29" fill="none" xmlns="http://www.w3.org/2000/svg">
<path d="M1.2 23V5.72H9.408C10.688 5.72 11.784 5.944 12.696 6.392C13.624 6.84 14.336 7.464 14.832 8.264C15.344 9.064 15.6 10 15.6 11.072C15.6 12.144 15.344 13.088 14.832 13.904C14.32 14.72 13.6 15.36 12.672 15.824C11.76 16.272 10.672 16.496 9.408 16.496H4.128V13.664H9.216C10.064 13.664 10.72 13.432 11.184 12.968C11.664 12.488 11.904 11.864 11.904 11.096C11.904 10.328 11.664 9.712 11.184 9.248C10.72 8.784 10.064 8.552 9.216 8.552H4.896V23H1.2ZM17.229 23V5.72H24.957C26.205 5.72 27.293 5.936 28.221 6.368C29.149 6.784 29.869 7.376 30.381 8.144C30.893 8.912 31.149 9.808 31.149 10.832C31.149 11.84 30.893 12.728 30.381 13.496C29.869 14.248 29.149 14.84 28.221 15.272C27.293 15.688 26.205 15.896 24.957 15.896H20.157V13.184H24.861C25.741 13.184 26.413 12.984 26.877 12.584C27.357 12.168 27.597 11.592 27.597 10.856C27.597 10.104 27.365 9.536 26.901 9.152C26.437 8.752 25.757 8.552 24.861 8.552H20.925V23H17.229ZM26.973 23L20.037 14.024H23.949L31.965 23H26.973ZM41.451 23.24C40.171 23.24 38.987 23.024 37.899 22.592C36.827 22.16 35.891 21.552 35.091 20.768C34.307 19.968 33.691 19.024 33.243 17.936C32.811 16.832 32.595 15.616 32.595 14.288C32.595 12.528 32.971 10.992 33.723 9.68C34.475 8.352 35.515 7.32 36.843 6.584C38.187 5.848 39.715 5.48 41.427 5.48C43.171 5.48 44.707 5.848 46.035 6.584C47.363 7.32 48.403 8.352 49.155 9.68C49.923 11.008 50.307 12.552 50.307 14.312C50.307 15.624 50.083 16.832 49.635 17.936C49.203 19.024 48.587 19.968 47.787 20.768C47.003 21.552 46.067 22.16 44.979 22.592C43.907 23.024 42.731 23.24 41.451 23.24ZM41.427 20.312C42.435 20.312 43.323 20.056 44.091 19.544C44.859 19.032 45.459 18.328 45.891 17.432C46.339 16.52 46.563 15.464 46.563 14.264C46.563 13.08 46.347 12.048 45.915 11.168C45.483 10.288 44.883 9.608 44.115 9.128C43.347 8.648 42.451 8.408 41.427 8.408C40.419 8.408 39.531 8.648 38.763 9.128C37.995 9.608 37.395 10.288 36.963 11.168C36.547 12.032 36.339 13.064 36.339 14.264C36.339 15.48 36.555 16.544 36.987 17.456C37.419 18.352 38.019 19.056 38.787 19.568C39.555 20.064 40.435 20.312 41.427 20.312ZM112.678 23L118.87 5.72H122.038L116.35 23H112.678ZM125.35 23L119.686 5.72H122.998L129.19 23H125.35ZM115.942 16.304H125.638V19.184H115.942V16.304ZM137.986 23.24C136.738 23.24 135.586 23.024 134.53 22.592C133.474 22.144 132.554 21.52 131.77 20.72C131.002 19.92 130.402 18.976 129.97 17.888C129.538 16.784 129.322 15.584 129.322 14.288C129.322 12.992 129.53 11.808 129.946 10.736C130.378 9.664 130.978 8.736 131.746 7.952C132.53 7.152 133.45 6.544 134.506 6.128C135.562 5.696 136.722 5.48 137.986 5.48C139.41 5.48 140.69 5.76 141.826 6.32C142.978 6.864 143.914 7.64 144.634 8.648C145.37 9.64 145.818 10.808 145.978 12.152H142.378C142.17 10.92 141.666 9.992 140.866 9.368C140.066 8.728 139.114 8.408 138.01 8.408C137.034 8.408 136.17 8.64 135.418 9.104C134.682 9.568 134.106 10.24 133.69 11.12C133.274 11.984 133.066 13.032 133.066 14.264C133.066 15.512 133.274 16.592 133.69 17.504C134.122 18.4 134.714 19.096 135.466 19.592C136.218 20.072 137.082 20.312 138.058 20.312C139.098 20.312 140.018 20 140.818 19.376C141.618 18.752 142.138 17.824 142.378 16.592H146.026C145.818 17.936 145.346 19.112 144.61 20.12C143.874 21.112 142.938 21.88 141.802 22.424C140.666 22.968 139.394 23.24 137.986 23.24ZM146.264 23L152.456 5.72H155.624L149.936 23H146.264ZM158.936 23L153.272 5.72H156.584L162.776 23H158.936ZM149.528 16.304H159.224V19.184H149.528V16.304ZM166.815 23V20.12H171.183C172.431 20.12 173.487 19.872 174.351 19.376C175.231 18.864 175.895 18.168 176.343 17.288C176.807 16.408 177.039 15.4 177.039 14.264C177.039 13.144 176.815 12.16 176.367 11.312C175.919 10.464 175.255 9.8 174.375 9.32C173.511 8.84 172.447 8.6 171.183 8.6H166.887V5.72H171.183C173.119 5.72 174.807 6.072 176.247 6.776C177.687 7.464 178.799 8.456 179.583 9.752C180.383 11.032 180.783 12.552 180.783 14.312C180.783 16.072 180.383 17.608 179.583 18.92C178.783 20.216 177.663 21.224 176.223 21.944C174.799 22.648 173.127 23 171.207 23H166.815ZM164.559 23V5.72H168.255V23H164.559ZM182.7 23V5.72H186.396V23H182.7ZM184.428 23V20.168H195.564V23H184.428ZM184.428 15.56V12.776H194.724V15.56H184.428ZM184.428 8.552V5.72H195.276V8.552H184.428ZM197.723 23V5.72H203.483L208.283 22.376H206.195L210.995 5.72H216.779V23H213.131V6.752H213.755L209.075 23H205.259L200.627 6.896H201.227V23H197.723ZM224.665 23V16.016L218.233 5.72H222.673L227.761 14.864H225.673L230.737 5.72H234.793L228.361 16.016V23H224.665Z" fill="white"/>
<path d="M57.9606 23.24C56.6806 23.24 55.5526 22.968 54.5766 22.424C53.6006 21.88 52.8326 21.128 52.2726 20.168C51.7286 19.208 51.4566 18.112 51.4566 16.88C51.4566 15.648 51.7286 14.552 52.2726 13.592C52.8326 12.632 53.6006 11.88 54.5766 11.336C55.5526 10.792 56.6806 10.52 57.9606 10.52C59.0326 10.52 59.9926 10.72 60.8406 11.12C61.7046 11.504 62.4086 12.04 62.9526 12.728C63.5126 13.416 63.8726 14.224 64.0326 15.152H60.5526C60.3766 14.56 60.0566 14.112 59.5926 13.808C59.1446 13.504 58.6166 13.352 58.0086 13.352C57.4326 13.352 56.9286 13.496 56.4966 13.784C56.0806 14.072 55.7606 14.48 55.5366 15.008C55.3126 15.536 55.2006 16.16 55.2006 16.88C55.2006 17.6 55.3126 18.224 55.5366 18.752C55.7606 19.28 56.0806 19.688 56.4966 19.976C56.9286 20.264 57.4326 20.408 58.0086 20.408C58.6166 20.408 59.1446 20.256 59.5926 19.952C60.0566 19.648 60.3766 19.2 60.5526 18.608H64.0326C63.8726 19.536 63.5126 20.344 62.9526 21.032C62.4086 21.72 61.7046 22.264 60.8406 22.664C59.9926 23.048 59.0326 23.24 57.9606 23.24ZM65.8931 23V10.76H69.4211V13.64H69.4931V23H65.8931ZM69.4931 16.616L69.1811 13.712C69.4691 12.672 69.9411 11.88 70.5971 11.336C71.2531 10.792 72.0691 10.52 73.0451 10.52C73.3491 10.52 73.5731 10.552 73.7171 10.616V13.976C73.6371 13.944 73.5251 13.928 73.3811 13.928C73.2371 13.912 73.0611 13.904 72.8531 13.904C71.7011 13.904 70.8531 14.112 70.3091 14.528C69.7651 14.928 69.4931 15.624 69.4931 16.616ZM81.0281 23.24C79.6681 23.24 78.4841 22.976 77.4761 22.448C76.4681 21.904 75.6841 21.152 75.1241 20.192C74.5801 19.232 74.3081 18.128 74.3081 16.88C74.3081 15.616 74.5801 14.512 75.1241 13.568C75.6841 12.608 76.4601 11.864 77.4521 11.336C78.4441 10.792 79.5961 10.52 80.9081 10.52C82.1721 10.52 83.2681 10.776 84.1961 11.288C85.1241 11.8 85.8441 12.512 86.3561 13.424C86.8681 14.336 87.1241 15.408 87.1241 16.64C87.1241 16.896 87.1161 17.136 87.1001 17.36C87.0841 17.568 87.0601 17.768 87.0281 17.96H76.4201V15.584H84.1241L83.5001 16.016C83.5001 15.024 83.2601 14.296 82.7801 13.832C82.3161 13.352 81.6761 13.112 80.8601 13.112C79.9161 13.112 79.1801 13.432 78.6521 14.072C78.1401 14.712 77.8841 15.672 77.8841 16.952C77.8841 18.2 78.1401 19.128 78.6521 19.736C79.1801 20.344 79.9641 20.648 81.0041 20.648C81.5801 20.648 82.0761 20.552 82.4921 20.36C82.9081 20.168 83.2201 19.856 83.4281 19.424H86.8121C86.4121 20.608 85.7241 21.544 84.7481 22.232C83.7881 22.904 82.5481 23.24 81.0281 23.24ZM81.8441 9.008H78.6761L81.0521 5.24H85.8041L81.8441 9.008ZM96.4956 23C96.3996 22.648 96.3276 22.272 96.2796 21.872C96.2476 21.472 96.2316 21.008 96.2316 20.48H96.1356V14.696C96.1356 14.2 95.9676 13.816 95.6316 13.544C95.3116 13.256 94.8316 13.112 94.1916 13.112C93.5836 13.112 93.0956 13.216 92.7276 13.424C92.3756 13.632 92.1436 13.936 92.0316 14.336H88.5996C88.7596 13.232 89.3276 12.32 90.3036 11.6C91.2796 10.88 92.6156 10.52 94.3116 10.52C96.0716 10.52 97.4156 10.912 98.3436 11.696C99.2716 12.48 99.7356 13.608 99.7356 15.08V20.48C99.7356 20.88 99.7596 21.288 99.8076 21.704C99.8716 22.104 99.9676 22.536 100.096 23H96.4956ZM92.2236 23.24C91.0076 23.24 90.0396 22.936 89.3196 22.328C88.5996 21.704 88.2396 20.88 88.2396 19.856C88.2396 18.72 88.6636 17.808 89.5116 17.12C90.3756 16.416 91.5756 15.96 93.1116 15.752L96.6876 15.248V17.336L93.7116 17.792C93.0716 17.888 92.5996 18.064 92.2956 18.32C91.9916 18.576 91.8396 18.928 91.8396 19.376C91.8396 19.776 91.9836 20.08 92.2716 20.288C92.5596 20.496 92.9436 20.6 93.4236 20.6C94.1756 20.6 94.8156 20.4 95.3436 20C95.8716 19.584 96.1356 19.104 96.1356 18.56L96.4716 20.48C96.1196 21.392 95.5836 22.08 94.8636 22.544C94.1436 23.008 93.2636 23.24 92.2236 23.24ZM102.503 23V5.72H106.103V23H102.503Z" fill="#06D1FB"/>
</svg>
